<?xml version="1.0" encoding="iso-8859-1"?>
<!-- Generator: Adobe Illustrator 24.1.2, SVG Export Plug-In . SVG Version: 6.00 Build 0)  -->
<svg version="1.1" baseProfile="basic" id="Layer_1"
	 xmlns="http://www.w3.org/2000/svg" xmlns:xlink="http://www.w3.org/1999/xlink" x="0px" y="0px" viewBox="0 0 64 64"
	 xml:space="preserve">
<rect x="-689" y="-555.076" style="display:none;opacity:0.83;" width="1074" height="1441.5"/>
<g>
	<path style="fill:#9C34C2;" d="M42,17.5h-5v-6c0-0.276-0.224-0.5-0.5-0.5h-9c-0.276,0-0.5,0.224-0.5,0.5v6h-5v-6
		C22,8.467,24.467,6,27.5,6h9c3.033,0,5.5,2.467,5.5,5.5V17.5z"/>
</g>
<path style="fill:#BD6300;" d="M49,14H15c-3.866,0-7,3.134-7,7v26c0,3.866,3.134,7,7,7h34c3.866,0,7-3.134,7-7V21
	C56,17.134,52.866,14,49,14z"/>
<path style="fill:#FFA500;" d="M50,34H14c-3.314,0-6-2.686-6-6v-7c0-3.866,3.134-7,7-7h34c3.866,0,7,3.134,7,7v7
	C56,31.314,53.314,34,50,34z"/>
<path style="opacity:0.3;fill:#FFFFFF;" d="M29,19c2.761,0,5-2.238,5-5H15c-3.866,0-7,3.134-7,7v21c2.761,0,5-2.238,5-5V21.501
	C13,20.12,14.12,19,15.501,19H29z"/>
<path style="fill:#FFFFFF;" d="M12,26c-0.828,0-1.5-0.671-1.5-1.5V21c0-2.481,2.019-4.5,4.5-4.5h3.5c0.828,0,1.5,0.671,1.5,1.5
	s-0.672,1.5-1.5,1.5H15c-0.827,0-1.5,0.673-1.5,1.5v3.5C13.5,25.329,12.828,26,12,26z"/>
<ellipse style="opacity:0.3;" cx="32" cy="61" rx="20.125" ry="3"/>
<g>
	<path style="opacity:0.15;" d="M56,47v-6c-2.761,0-5,2.238-5,5l0,0c0,2.209-1.791,3-4,3H35c-2.761,0-5,2.238-5,5h19
		C52.866,54,56,50.866,56,47z"/>
</g>
<circle style="fill:#9C34C2;" cx="32" cy="26" r="6"/>
<path style="fill:#9C34C2;" d="M37,46H27c-1.657,0-3-1.343-3-3v-1.054c0-4.418,3.582-8,8-8l0,0c4.418,0,8,3.582,8,8V43
	C40,44.657,38.657,46,37,46z"/>
</svg>