<?xml version="1.0" encoding="utf-8"?>
<!-- Generator: Adobe Illustrator 21.0.2, SVG Export Plug-In . SVG Version: 6.00 Build 0)  -->
<svg version="1.1" id="Layer_1" xmlns="http://www.w3.org/2000/svg" xmlns:xlink="http://www.w3.org/1999/xlink" x="0px" y="0px"
	 viewBox="0 0 135 135" style="enable-background:new 0 0 135 135;" xml:space="preserve">
<style type="text/css">
	.st0{fill:#83CD29;}
	.st1{fill:#FFFFFF;}
	.st2{fill:#404137;}
</style>
<circle class="st0" cx="67.5" cy="67.5" r="67.5"/>
<g>
	<path class="st1" d="M67.5,73.2c-0.3,0-0.5,0.1-0.8,0.2l-7.4,4.3c-0.5,0.3-0.8,0.8-0.8,1.3v8.5c0,0.6,0.3,1.1,0.8,1.3l1.9,1.1
		c0.9,0.5,1.3,0.5,1.7,0.5c1.4,0,2.2-0.8,2.2-2.3v-8.4c0-0.1-0.1-0.2-0.2-0.2H64c-0.1,0-0.2,0.1-0.2,0.2v8.4c0,0.6-0.7,1.3-1.8,0.8
		l-2-1.2c-0.1,0-0.1-0.1-0.1-0.2V79c0-0.1,0.1-0.2,0.1-0.2l7.4-4.2c0.1,0,0.2,0,0.2,0l7.4,4.2c0.1,0,0.1,0.1,0.1,0.2v8.5
		c0,0.1,0,0.2-0.1,0.2l-7.4,4.2c-0.1,0-0.2,0-0.2,0l-1.9-1.1c-0.1,0-0.1,0-0.2,0c-0.5,0.3-0.6,0.3-1.1,0.5c-0.1,0-0.3,0.1,0.1,0.3
		l2.5,1.5c0.2,0.1,0.5,0.2,0.8,0.2c0.3,0,0.5-0.1,0.8-0.2l7.4-4.2c0.5-0.3,0.8-0.8,0.8-1.3V79c0-0.6-0.3-1.1-0.8-1.3l-7.4-4.3
		C68,73.2,67.8,73.2,67.5,73.2L67.5,73.2z M69.5,79.3c-2.1,0-3.4,0.9-3.4,2.4c0,1.6,1.2,2.1,3.3,2.3c2.4,0.2,2.6,0.6,2.6,1.1
		c0,0.8-0.7,1.2-2.2,1.2c-2,0-2.4-0.5-2.5-1.5c0-0.1-0.1-0.2-0.2-0.2h-1c-0.1,0-0.2,0.1-0.2,0.2c0,1.2,0.7,2.7,3.9,2.7
		c2.3,0,3.7-0.9,3.7-2.5c0-1.6-1.1-2-3.4-2.3c-2.3-0.3-2.5-0.5-2.5-1c0-0.4,0.2-1,1.9-1c1.5,0,2.1,0.3,2.3,1.3
		c0,0.1,0.1,0.2,0.2,0.2h1c0.1,0,0.1,0,0.2-0.1c0,0,0.1-0.1,0.1-0.2C73,80.1,71.8,79.3,69.5,79.3L69.5,79.3z"/>
	<path class="st2" d="M82.7,41.7c-0.1,0-0.2,0-0.2,0.1c-0.1,0.1-0.2,0.2-0.2,0.4v12c0,0.1-0.1,0.2-0.2,0.3c-0.1,0.1-0.2,0.1-0.3,0
		l-2-1.1c-0.3-0.2-0.6-0.2-0.9,0L71,57.8c-0.3,0.2-0.5,0.5-0.5,0.8v9c0,0.3,0.2,0.6,0.5,0.8l7.8,4.5c0.3,0.2,0.6,0.2,0.9,0l7.8-4.5
		c0.3-0.2,0.5-0.5,0.5-0.8V45.2c0-0.3-0.2-0.7-0.5-0.8l-4.7-2.6C82.8,41.7,82.8,41.7,82.7,41.7L82.7,41.7z M32.3,53
		c-0.1,0-0.3,0-0.4,0.1l-7.8,4.5c-0.3,0.2-0.5,0.5-0.5,0.8l0,12.1c0,0.2,0.1,0.3,0.2,0.4c0.1,0.1,0.3,0.1,0.5,0l4.6-2.7
		c0.3-0.2,0.5-0.5,0.5-0.8v-5.7c0-0.3,0.2-0.6,0.5-0.8l2-1.1c0.1-0.1,0.3-0.1,0.5-0.1c0.2,0,0.3,0,0.5,0.1l2,1.1
		c0.3,0.2,0.5,0.5,0.5,0.8v5.7c0,0.3,0.2,0.6,0.5,0.8l4.6,2.7c0.1,0.1,0.3,0.1,0.5,0c0.1-0.1,0.2-0.2,0.2-0.4l0-12.1
		c0-0.3-0.2-0.6-0.5-0.8l-7.8-4.5C32.7,53,32.6,53,32.3,53L32.3,53L32.3,53z M102.7,53.1c-0.2,0-0.3,0-0.5,0.1l-7.8,4.5
		c-0.3,0.2-0.5,0.5-0.5,0.8v9c0,0.3,0.2,0.6,0.5,0.8l7.8,4.4c0.3,0.2,0.6,0.2,0.9,0l4.7-2.6c0.1-0.1,0.3-0.2,0.3-0.4
		c0-0.2-0.1-0.3-0.2-0.4l-7.9-4.5c-0.1-0.1-0.3-0.3-0.3-0.4v-2.8c0-0.2,0.1-0.3,0.3-0.4l2.4-1.4c0.1-0.1,0.3-0.1,0.5,0l2.4,1.4
		c0.1,0.1,0.2,0.2,0.2,0.4v2.2c0,0.2,0.1,0.3,0.2,0.4c0.1,0.1,0.3,0.1,0.5,0l4.7-2.7c0.3-0.2,0.5-0.5,0.5-0.8v-2.2
		c0-0.3-0.2-0.6-0.5-0.8l-7.8-4.5C103,53.1,102.8,53.1,102.7,53.1L102.7,53.1z M79.3,59.8c0,0,0.1,0,0.1,0l2.7,1.6
		c0.1,0,0.1,0.1,0.1,0.2v3.1c0,0.1-0.1,0.2-0.1,0.2l-2.7,1.6c-0.1,0-0.2,0-0.2,0l-2.7-1.6c-0.1,0-0.1-0.1-0.1-0.2v-3.1
		c0-0.1,0.1-0.2,0.1-0.2l2.7-1.6C79.2,59.8,79.2,59.8,79.3,59.8L79.3,59.8L79.3,59.8z"/>
	<path class="st1" d="M55.8,53c-0.2,0-0.3,0-0.5,0.1l-7.8,4.5c-0.3,0.2-0.5,0.5-0.5,0.8v9c0,0.3,0.2,0.6,0.5,0.8l7.8,4.5
		c0.3,0.2,0.6,0.2,0.9,0l7.8-4.5c0.3-0.2,0.5-0.5,0.5-0.8v-9c0-0.3-0.2-0.7-0.5-0.8l-7.8-4.5C56.2,53.1,56,53,55.8,53L55.8,53z
		 M102.6,61.1C102.6,61.1,102.6,61.1,102.6,61.1L101,62c-0.1,0-0.1,0.1-0.1,0.2v1.7c0,0.1,0,0.1,0.1,0.2l1.5,0.9c0.1,0,0.1,0,0.2,0
		l1.5-0.9c0.1,0,0.1-0.1,0.1-0.2v-1.7c0-0.1,0-0.1-0.1-0.2L102.6,61.1C102.7,61.1,102.7,61.1,102.6,61.1L102.6,61.1z"/>
</g>
</svg>
